<mxfile host="app.diagrams.net" modified="2022-02-17T08:59:12.054Z" agent="5.0 (Windows NT 10.0; Win64; x64) AppleWebKit/537.36 (KHTML, like Gecko) Chrome/98.0.4758.82 Safari/537.36" etag="7FhIHcjwFKaZrHQv3dmv" version="16.5.6" type="github">
  <diagram id="0TzAX2Er6mG8E29ZfXta" name="Page-1">
    <mxGraphModel dx="769" dy="362" grid="1" gridSize="10" guides="1" tooltips="1" connect="1" arrows="1" fold="1" page="1" pageScale="1" pageWidth="1169" pageHeight="827" math="0" shadow="0">
      <root>
        <mxCell id="0" />
        <mxCell id="1" parent="0" />
        <mxCell id="urWbsm_rKdDYiyc675G5-9" style="edgeStyle=orthogonalEdgeStyle;rounded=0;orthogonalLoop=1;jettySize=auto;html=1;entryX=0;entryY=0.25;entryDx=0;entryDy=0;exitX=1;exitY=0.25;exitDx=0;exitDy=0;" edge="1" parent="1" source="urWbsm_rKdDYiyc675G5-1" target="urWbsm_rKdDYiyc675G5-2">
          <mxGeometry relative="1" as="geometry" />
        </mxCell>
        <mxCell id="urWbsm_rKdDYiyc675G5-1" value="Forgot Password" style="rounded=1;whiteSpace=wrap;html=1;" vertex="1" parent="1">
          <mxGeometry x="230" y="110" width="120" height="60" as="geometry" />
        </mxCell>
        <mxCell id="urWbsm_rKdDYiyc675G5-10" style="edgeStyle=orthogonalEdgeStyle;rounded=0;orthogonalLoop=1;jettySize=auto;html=1;entryX=1;entryY=0.75;entryDx=0;entryDy=0;exitX=0;exitY=0.75;exitDx=0;exitDy=0;" edge="1" parent="1" source="urWbsm_rKdDYiyc675G5-2" target="urWbsm_rKdDYiyc675G5-1">
          <mxGeometry relative="1" as="geometry" />
        </mxCell>
        <mxCell id="urWbsm_rKdDYiyc675G5-11" style="edgeStyle=orthogonalEdgeStyle;rounded=0;orthogonalLoop=1;jettySize=auto;html=1;entryX=0;entryY=0.75;entryDx=0;entryDy=0;exitX=1;exitY=0.75;exitDx=0;exitDy=0;" edge="1" parent="1" source="urWbsm_rKdDYiyc675G5-2" target="urWbsm_rKdDYiyc675G5-3">
          <mxGeometry relative="1" as="geometry" />
        </mxCell>
        <mxCell id="urWbsm_rKdDYiyc675G5-13" style="edgeStyle=orthogonalEdgeStyle;rounded=0;orthogonalLoop=1;jettySize=auto;html=1;entryX=0.75;entryY=0;entryDx=0;entryDy=0;exitX=0.75;exitY=1;exitDx=0;exitDy=0;" edge="1" parent="1" source="urWbsm_rKdDYiyc675G5-2" target="urWbsm_rKdDYiyc675G5-4">
          <mxGeometry relative="1" as="geometry" />
        </mxCell>
        <mxCell id="urWbsm_rKdDYiyc675G5-2" value="Login" style="rounded=1;whiteSpace=wrap;html=1;" vertex="1" parent="1">
          <mxGeometry x="450" y="110" width="120" height="60" as="geometry" />
        </mxCell>
        <mxCell id="urWbsm_rKdDYiyc675G5-12" style="edgeStyle=orthogonalEdgeStyle;rounded=0;orthogonalLoop=1;jettySize=auto;html=1;entryX=1;entryY=0.25;entryDx=0;entryDy=0;exitX=0;exitY=0.25;exitDx=0;exitDy=0;" edge="1" parent="1" source="urWbsm_rKdDYiyc675G5-3" target="urWbsm_rKdDYiyc675G5-2">
          <mxGeometry relative="1" as="geometry" />
        </mxCell>
        <mxCell id="urWbsm_rKdDYiyc675G5-3" value="Registration" style="rounded=1;whiteSpace=wrap;html=1;" vertex="1" parent="1">
          <mxGeometry x="670" y="110" width="120" height="60" as="geometry" />
        </mxCell>
        <mxCell id="urWbsm_rKdDYiyc675G5-14" style="edgeStyle=orthogonalEdgeStyle;rounded=0;orthogonalLoop=1;jettySize=auto;html=1;entryX=0.25;entryY=1;entryDx=0;entryDy=0;exitX=0.25;exitY=0;exitDx=0;exitDy=0;" edge="1" parent="1" source="urWbsm_rKdDYiyc675G5-4" target="urWbsm_rKdDYiyc675G5-2">
          <mxGeometry relative="1" as="geometry" />
        </mxCell>
        <mxCell id="urWbsm_rKdDYiyc675G5-15" style="edgeStyle=orthogonalEdgeStyle;rounded=0;orthogonalLoop=1;jettySize=auto;html=1;entryX=0;entryY=0.75;entryDx=0;entryDy=0;exitX=1;exitY=0.75;exitDx=0;exitDy=0;" edge="1" parent="1" source="urWbsm_rKdDYiyc675G5-4" target="urWbsm_rKdDYiyc675G5-5">
          <mxGeometry relative="1" as="geometry" />
        </mxCell>
        <mxCell id="urWbsm_rKdDYiyc675G5-16" value="" style="edgeStyle=orthogonalEdgeStyle;rounded=0;orthogonalLoop=1;jettySize=auto;html=1;entryX=0.75;entryY=0;entryDx=0;entryDy=0;exitX=0.75;exitY=1;exitDx=0;exitDy=0;" edge="1" parent="1" source="urWbsm_rKdDYiyc675G5-4" target="urWbsm_rKdDYiyc675G5-6">
          <mxGeometry relative="1" as="geometry" />
        </mxCell>
        <mxCell id="urWbsm_rKdDYiyc675G5-19" style="edgeStyle=orthogonalEdgeStyle;rounded=0;orthogonalLoop=1;jettySize=auto;html=1;entryX=1;entryY=0.75;entryDx=0;entryDy=0;exitX=0;exitY=0.75;exitDx=0;exitDy=0;" edge="1" parent="1" source="urWbsm_rKdDYiyc675G5-4" target="urWbsm_rKdDYiyc675G5-7">
          <mxGeometry relative="1" as="geometry" />
        </mxCell>
        <mxCell id="urWbsm_rKdDYiyc675G5-4" value="Game lobby" style="rounded=1;whiteSpace=wrap;html=1;" vertex="1" parent="1">
          <mxGeometry x="450" y="230" width="120" height="60" as="geometry" />
        </mxCell>
        <mxCell id="urWbsm_rKdDYiyc675G5-20" style="edgeStyle=orthogonalEdgeStyle;rounded=0;orthogonalLoop=1;jettySize=auto;html=1;entryX=1;entryY=0.25;entryDx=0;entryDy=0;exitX=0;exitY=0.25;exitDx=0;exitDy=0;" edge="1" parent="1" source="urWbsm_rKdDYiyc675G5-5" target="urWbsm_rKdDYiyc675G5-4">
          <mxGeometry relative="1" as="geometry" />
        </mxCell>
        <mxCell id="urWbsm_rKdDYiyc675G5-5" value="User Profile" style="rounded=1;whiteSpace=wrap;html=1;" vertex="1" parent="1">
          <mxGeometry x="670" y="230" width="120" height="60" as="geometry" />
        </mxCell>
        <mxCell id="urWbsm_rKdDYiyc675G5-21" value="" style="edgeStyle=orthogonalEdgeStyle;rounded=0;orthogonalLoop=1;jettySize=auto;html=1;entryX=0.25;entryY=1;entryDx=0;entryDy=0;exitX=0.25;exitY=0;exitDx=0;exitDy=0;" edge="1" parent="1" source="urWbsm_rKdDYiyc675G5-6" target="urWbsm_rKdDYiyc675G5-4">
          <mxGeometry relative="1" as="geometry" />
        </mxCell>
        <mxCell id="urWbsm_rKdDYiyc675G5-23" value="Game end" style="edgeStyle=orthogonalEdgeStyle;rounded=0;orthogonalLoop=1;jettySize=auto;html=1;entryX=0.5;entryY=0;entryDx=0;entryDy=0;" edge="1" parent="1" source="urWbsm_rKdDYiyc675G5-6" target="urWbsm_rKdDYiyc675G5-22">
          <mxGeometry relative="1" as="geometry" />
        </mxCell>
        <mxCell id="urWbsm_rKdDYiyc675G5-6" value="Poker Room" style="rounded=1;whiteSpace=wrap;html=1;" vertex="1" parent="1">
          <mxGeometry x="450" y="353.5" width="120" height="60" as="geometry" />
        </mxCell>
        <mxCell id="urWbsm_rKdDYiyc675G5-17" style="edgeStyle=orthogonalEdgeStyle;rounded=0;orthogonalLoop=1;jettySize=auto;html=1;entryX=0;entryY=0.5;entryDx=0;entryDy=0;exitX=0.5;exitY=1;exitDx=0;exitDy=0;" edge="1" parent="1" source="urWbsm_rKdDYiyc675G5-7" target="urWbsm_rKdDYiyc675G5-6">
          <mxGeometry relative="1" as="geometry" />
        </mxCell>
        <mxCell id="urWbsm_rKdDYiyc675G5-18" style="edgeStyle=orthogonalEdgeStyle;rounded=0;orthogonalLoop=1;jettySize=auto;html=1;entryX=0;entryY=0.25;entryDx=0;entryDy=0;exitX=1;exitY=0.25;exitDx=0;exitDy=0;" edge="1" parent="1" source="urWbsm_rKdDYiyc675G5-7" target="urWbsm_rKdDYiyc675G5-4">
          <mxGeometry relative="1" as="geometry" />
        </mxCell>
        <mxCell id="urWbsm_rKdDYiyc675G5-7" value="Create Poker Room" style="rounded=1;whiteSpace=wrap;html=1;" vertex="1" parent="1">
          <mxGeometry x="230" y="230" width="120" height="60" as="geometry" />
        </mxCell>
        <mxCell id="urWbsm_rKdDYiyc675G5-24" style="edgeStyle=orthogonalEdgeStyle;rounded=0;orthogonalLoop=1;jettySize=auto;html=1;entryX=1;entryY=1;entryDx=0;entryDy=0;" edge="1" parent="1" source="urWbsm_rKdDYiyc675G5-22" target="urWbsm_rKdDYiyc675G5-4">
          <mxGeometry relative="1" as="geometry">
            <Array as="points">
              <mxPoint x="650" y="490" />
              <mxPoint x="650" y="290" />
            </Array>
          </mxGeometry>
        </mxCell>
        <mxCell id="urWbsm_rKdDYiyc675G5-22" value="Game result" style="rounded=1;whiteSpace=wrap;html=1;" vertex="1" parent="1">
          <mxGeometry x="450" y="460" width="120" height="60" as="geometry" />
        </mxCell>
      </root>
    </mxGraphModel>
  </diagram>
</mxfile>
